<mxfile host="65bd71144e">
    <diagram id="JbyR6IlPqAX62n-xWFW8" name="Page-1">
        <mxGraphModel dx="556" dy="546" grid="1" gridSize="10" guides="1" tooltips="1" connect="1" arrows="1" fold="1" page="1" pageScale="1" pageWidth="827" pageHeight="1169" math="0" shadow="0">
            <root>
                <mxCell id="0"/>
                <mxCell id="1" parent="0"/>
                <mxCell id="o24XuK63UDQuEkNAiOs7-57" value="" style="rounded=0;whiteSpace=wrap;html=1;labelBorderColor=none;fillStyle=solid;strokeColor=#000000;strokeWidth=2;fontFamily=Helvetica;fontSize=14;fontColor=#333333;fillColor=#f5f5f5;fontStyle=1" parent="1" vertex="1">
                    <mxGeometry x="54" y="10" width="1030" height="1250" as="geometry"/>
                </mxCell>
                <mxCell id="dCYVfvfBqd2NlbiFJZVF-13" value="" style="edgeStyle=orthogonalEdgeStyle;rounded=0;orthogonalLoop=1;jettySize=auto;html=1;entryX=0.25;entryY=0;entryDx=0;entryDy=0;exitX=0.25;exitY=1;exitDx=0;exitDy=0;dashed=1;endArrow=block;endFill=1;sketch=0;fontFamily=Helvetica;fontSize=14;strokeColor=#000000;strokeWidth=2;dashPattern=1 1;fontStyle=1" parent="1" source="dCYVfvfBqd2NlbiFJZVF-7" target="dCYVfvfBqd2NlbiFJZVF-8" edge="1">
                    <mxGeometry relative="1" as="geometry"/>
                </mxCell>
                <mxCell id="dCYVfvfBqd2NlbiFJZVF-7" value="Users" style="swimlane;horizontal=0;fontStyle=1;sketch=0;fontFamily=Helvetica;fillColor=#f8cecc;strokeColor=#000000;fontSize=14;strokeWidth=2;" parent="1" vertex="1">
                    <mxGeometry x="100" y="50" width="930" height="80" as="geometry">
                        <mxRectangle x="100" y="50" width="30" height="60" as="alternateBounds"/>
                    </mxGeometry>
                </mxCell>
                <mxCell id="dCYVfvfBqd2NlbiFJZVF-23" value="Admin" style="sketch=0;outlineConnect=0;fontColor=#232F3E;gradientColor=none;fillColor=#33001A;strokeColor=#000000;dashed=0;verticalLabelPosition=bottom;verticalAlign=top;align=center;html=1;fontSize=14;fontStyle=1;aspect=fixed;pointerEvents=1;shape=mxgraph.aws4.user;fontFamily=Helvetica;strokeWidth=2;" parent="dCYVfvfBqd2NlbiFJZVF-7" vertex="1">
                    <mxGeometry x="220" y="14" width="30" height="30" as="geometry"/>
                </mxCell>
                <mxCell id="dCYVfvfBqd2NlbiFJZVF-24" value="Delivery Squad" style="sketch=0;outlineConnect=0;fontColor=#232F3E;gradientColor=none;fillColor=#33001A;strokeColor=#000000;dashed=0;verticalLabelPosition=bottom;verticalAlign=top;align=center;html=1;fontSize=14;fontStyle=1;aspect=fixed;pointerEvents=1;shape=mxgraph.aws4.user;fontFamily=Helvetica;strokeWidth=2;" parent="dCYVfvfBqd2NlbiFJZVF-7" vertex="1">
                    <mxGeometry x="680" y="14" width="30" height="30" as="geometry"/>
                </mxCell>
                <mxCell id="dCYVfvfBqd2NlbiFJZVF-8" value="Channels" style="swimlane;horizontal=0;fontStyle=1;sketch=0;fontFamily=Helvetica;fillColor=#f8cecc;strokeColor=#000000;fontSize=14;strokeWidth=2;" parent="1" vertex="1">
                    <mxGeometry x="100" y="170" width="930" height="100" as="geometry">
                        <mxRectangle x="100" y="170" width="30" height="60" as="alternateBounds"/>
                    </mxGeometry>
                </mxCell>
                <mxCell id="dCYVfvfBqd2NlbiFJZVF-32" value="Dudhwala Portal &lt;br&gt;(Responsive Web App)" style="sketch=0;pointerEvents=1;shadow=0;dashed=0;html=1;strokeColor=#000000;fillColor=#000000;aspect=fixed;labelPosition=center;verticalLabelPosition=bottom;verticalAlign=top;align=center;outlineConnect=0;shape=mxgraph.vvd.web_browser;fillStyle=solid;fontFamily=Helvetica;fontSize=14;strokeWidth=0.5;fontStyle=1" parent="dCYVfvfBqd2NlbiFJZVF-8" vertex="1">
                    <mxGeometry x="100" y="13" width="56.34" height="40" as="geometry"/>
                </mxCell>
                <mxCell id="o24XuK63UDQuEkNAiOs7-1" value="Dudhwala Portal&lt;br&gt;(Responsive Web App)" style="sketch=0;pointerEvents=1;shadow=0;dashed=0;html=1;strokeColor=#000000;fillColor=#33001A;aspect=fixed;labelPosition=center;verticalLabelPosition=bottom;verticalAlign=top;align=center;outlineConnect=0;shape=mxgraph.vvd.web_browser;fillStyle=solid;fontFamily=Helvetica;fontSize=14;strokeWidth=0.5;fontStyle=1" parent="dCYVfvfBqd2NlbiFJZVF-8" vertex="1">
                    <mxGeometry x="750" y="13" width="56.34" height="40" as="geometry"/>
                </mxCell>
                <mxCell id="o24XuK63UDQuEkNAiOs7-41" value="Dudhwala Portal&lt;br&gt;(Responsive Web App)" style="sketch=0;pointerEvents=1;shadow=0;dashed=0;html=1;strokeColor=#000000;fillColor=#33001A;aspect=fixed;labelPosition=center;verticalLabelPosition=bottom;verticalAlign=top;align=center;outlineConnect=0;shape=mxgraph.vvd.web_browser;fillStyle=solid;fontFamily=Helvetica;fontSize=14;strokeWidth=0.5;fontStyle=1" parent="dCYVfvfBqd2NlbiFJZVF-8" vertex="1">
                    <mxGeometry x="440" y="13" width="56.34" height="40" as="geometry"/>
                </mxCell>
                <mxCell id="dCYVfvfBqd2NlbiFJZVF-14" value="" style="edgeStyle=orthogonalEdgeStyle;rounded=0;orthogonalLoop=1;jettySize=auto;html=1;exitX=0.5;exitY=1;exitDx=0;exitDy=0;entryX=0.5;entryY=0;entryDx=0;entryDy=0;dashed=1;endArrow=block;endFill=1;sketch=0;fontFamily=Helvetica;fontSize=14;strokeColor=#000000;strokeWidth=2;dashPattern=1 1;fontStyle=1" parent="1" source="dCYVfvfBqd2NlbiFJZVF-7" target="dCYVfvfBqd2NlbiFJZVF-8" edge="1">
                    <mxGeometry relative="1" as="geometry">
                        <mxPoint x="240" y="150" as="sourcePoint"/>
                        <mxPoint x="290" y="160" as="targetPoint"/>
                        <Array as="points">
                            <mxPoint x="565" y="130"/>
                            <mxPoint x="565" y="170"/>
                        </Array>
                    </mxGeometry>
                </mxCell>
                <mxCell id="dCYVfvfBqd2NlbiFJZVF-16" value="Dudhwala Platform Services" style="swimlane;horizontal=0;fontStyle=1;fontSize=14;sketch=0;fontFamily=Helvetica;fillColor=#f8cecc;strokeColor=#000000;strokeWidth=2;" parent="1" vertex="1">
                    <mxGeometry x="100" y="460" width="520" height="390" as="geometry">
                        <mxRectangle x="100" y="170" width="30" height="60" as="alternateBounds"/>
                    </mxGeometry>
                </mxCell>
                <mxCell id="j7dnmn5wsTtFB2skk1Vw-63" value="Product &lt;br&gt;Management" style="shape=parallelogram;perimeter=parallelogramPerimeter;whiteSpace=wrap;html=1;fixedSize=1;rounded=0;glass=0;sketch=0;curveFitting=0.95;strokeWidth=2;fontFamily=Helvetica;fillColor=#ffe6cc;fontSize=14;strokeColor=#000000;fontStyle=1" parent="dCYVfvfBqd2NlbiFJZVF-16" vertex="1">
                    <mxGeometry x="39" y="19" width="150" height="40" as="geometry"/>
                </mxCell>
                <mxCell id="j7dnmn5wsTtFB2skk1Vw-64" value="Delivery Squad Management" style="shape=parallelogram;perimeter=parallelogramPerimeter;whiteSpace=wrap;html=1;fixedSize=1;rounded=0;glass=0;sketch=0;curveFitting=0.95;strokeWidth=2;fontFamily=Helvetica;fillColor=#ffe6cc;fontSize=14;strokeColor=#000000;fontStyle=1" parent="dCYVfvfBqd2NlbiFJZVF-16" vertex="1">
                    <mxGeometry x="92" y="81.5" width="143.5" height="40" as="geometry"/>
                </mxCell>
                <mxCell id="j7dnmn5wsTtFB2skk1Vw-65" value="Customer Enrollment" style="shape=parallelogram;perimeter=parallelogramPerimeter;whiteSpace=wrap;html=1;fixedSize=1;rounded=0;glass=0;sketch=0;curveFitting=0.95;strokeWidth=2;fontFamily=Helvetica;fillColor=#ffe6cc;fontSize=14;strokeColor=#000000;fontStyle=1" parent="dCYVfvfBqd2NlbiFJZVF-16" vertex="1">
                    <mxGeometry x="220" y="19" width="139.5" height="40" as="geometry"/>
                </mxCell>
                <mxCell id="j7dnmn5wsTtFB2skk1Vw-66" value="Delivery" style="shape=parallelogram;perimeter=parallelogramPerimeter;whiteSpace=wrap;html=1;fixedSize=1;rounded=0;glass=0;sketch=0;curveFitting=0.95;strokeWidth=2;fontFamily=Helvetica;fillColor=#ffe6cc;fontSize=14;strokeColor=#000000;fontStyle=1" parent="dCYVfvfBqd2NlbiFJZVF-16" vertex="1">
                    <mxGeometry x="334" y="81.5" width="134" height="40" as="geometry"/>
                </mxCell>
                <mxCell id="j7dnmn5wsTtFB2skk1Vw-1" value="" style="rounded=1;whiteSpace=wrap;html=1;sketch=0;spacing=2;strokeWidth=2;glass=0;curveFitting=0.95;fillColor=#ffe6cc;fontFamily=Helvetica;fontSize=14;strokeColor=#000000;fontStyle=1" parent="dCYVfvfBqd2NlbiFJZVF-16" vertex="1">
                    <mxGeometry x="40" y="150" width="460" height="220" as="geometry"/>
                </mxCell>
                <mxCell id="j7dnmn5wsTtFB2skk1Vw-67" value="" style="edgeStyle=orthogonalEdgeStyle;rounded=0;orthogonalLoop=1;jettySize=auto;html=1;sketch=0;fillColor=none;fontFamily=Helvetica;endArrow=block;endFill=1;fontSize=14;strokeColor=#000000;strokeWidth=2;fontStyle=1;exitX=0;exitY=0;exitDx=0;exitDy=0;entryX=0.25;entryY=1;entryDx=0;entryDy=0;" parent="dCYVfvfBqd2NlbiFJZVF-16" source="dCYVfvfBqd2NlbiFJZVF-63" target="j7dnmn5wsTtFB2skk1Vw-63" edge="1">
                    <mxGeometry relative="1" as="geometry">
                        <mxPoint x="120" y="160" as="sourcePoint"/>
                        <Array as="points">
                            <mxPoint x="77" y="180"/>
                            <mxPoint x="77" y="114"/>
                        </Array>
                    </mxGeometry>
                </mxCell>
                <mxCell id="dCYVfvfBqd2NlbiFJZVF-63" value="" style="ellipse;whiteSpace=wrap;html=1;sketch=0;fillStyle=solid;fontFamily=Helvetica;fontSize=14;fillColor=#f9f7ed;strokeColor=#000000;strokeWidth=2;fontStyle=1" parent="dCYVfvfBqd2NlbiFJZVF-16" vertex="1">
                    <mxGeometry x="50" y="168" width="170" height="80" as="geometry"/>
                </mxCell>
                <mxCell id="j7dnmn5wsTtFB2skk1Vw-2" value="" style="rounded=0;whiteSpace=wrap;html=1;sketch=0;fillColor=none;fontFamily=Helvetica;fontSize=14;strokeColor=#000000;strokeWidth=2;fontStyle=1" parent="dCYVfvfBqd2NlbiFJZVF-16" vertex="1">
                    <mxGeometry x="79" y="183" width="50" height="15" as="geometry"/>
                </mxCell>
                <mxCell id="j7dnmn5wsTtFB2skk1Vw-6" value="" style="rounded=0;whiteSpace=wrap;html=1;sketch=0;fillColor=none;fontFamily=Helvetica;fontSize=14;strokeColor=#000000;strokeWidth=2;fontStyle=1" parent="dCYVfvfBqd2NlbiFJZVF-16" vertex="1">
                    <mxGeometry x="79" y="201" width="24" height="15" as="geometry"/>
                </mxCell>
                <mxCell id="j7dnmn5wsTtFB2skk1Vw-7" value="" style="rounded=0;whiteSpace=wrap;html=1;sketch=0;fillColor=none;fontFamily=Helvetica;fontSize=14;strokeColor=#000000;strokeWidth=2;fontStyle=1" parent="dCYVfvfBqd2NlbiFJZVF-16" vertex="1">
                    <mxGeometry x="105" y="201" width="24" height="15" as="geometry"/>
                </mxCell>
                <mxCell id="j7dnmn5wsTtFB2skk1Vw-17" value="" style="rounded=0;whiteSpace=wrap;html=1;sketch=0;fillColor=none;fontFamily=Helvetica;fontSize=14;strokeColor=#000000;strokeWidth=2;fontStyle=1" parent="dCYVfvfBqd2NlbiFJZVF-16" vertex="1">
                    <mxGeometry x="139" y="183" width="50" height="15" as="geometry"/>
                </mxCell>
                <mxCell id="j7dnmn5wsTtFB2skk1Vw-18" value="" style="rounded=0;whiteSpace=wrap;html=1;sketch=0;fillColor=none;fontFamily=Helvetica;fontSize=14;strokeColor=#000000;strokeWidth=2;fontStyle=1" parent="dCYVfvfBqd2NlbiFJZVF-16" vertex="1">
                    <mxGeometry x="139" y="201" width="24" height="15" as="geometry"/>
                </mxCell>
                <mxCell id="j7dnmn5wsTtFB2skk1Vw-19" value="" style="rounded=0;whiteSpace=wrap;html=1;sketch=0;fillColor=none;fontFamily=Helvetica;fontSize=14;strokeColor=#000000;strokeWidth=2;fontStyle=1" parent="dCYVfvfBqd2NlbiFJZVF-16" vertex="1">
                    <mxGeometry x="165" y="201" width="24" height="15" as="geometry"/>
                </mxCell>
                <mxCell id="j7dnmn5wsTtFB2skk1Vw-20" value="" style="rounded=0;whiteSpace=wrap;html=1;sketch=0;fillColor=none;fontFamily=Helvetica;fontSize=14;strokeColor=#000000;strokeWidth=2;fontStyle=1" parent="dCYVfvfBqd2NlbiFJZVF-16" vertex="1">
                    <mxGeometry x="139" y="219" width="14" height="14" as="geometry"/>
                </mxCell>
                <mxCell id="j7dnmn5wsTtFB2skk1Vw-21" value="" style="rounded=0;whiteSpace=wrap;html=1;sketch=0;fillColor=none;fontFamily=Helvetica;fontSize=14;strokeColor=#000000;strokeWidth=2;fontStyle=1" parent="dCYVfvfBqd2NlbiFJZVF-16" vertex="1">
                    <mxGeometry x="157" y="219" width="14" height="14" as="geometry"/>
                </mxCell>
                <mxCell id="j7dnmn5wsTtFB2skk1Vw-22" value="" style="rounded=0;whiteSpace=wrap;html=1;sketch=0;fillColor=none;fontFamily=Helvetica;fontSize=14;strokeColor=#000000;strokeWidth=2;fontStyle=1" parent="dCYVfvfBqd2NlbiFJZVF-16" vertex="1">
                    <mxGeometry x="175" y="219" width="14" height="14" as="geometry"/>
                </mxCell>
                <mxCell id="o24XuK63UDQuEkNAiOs7-49" style="edgeStyle=orthogonalEdgeStyle;rounded=0;sketch=0;orthogonalLoop=1;jettySize=auto;html=1;exitX=0.5;exitY=0;exitDx=0;exitDy=0;strokeColor=#000000;strokeWidth=2;fontFamily=Helvetica;fontSize=14;fontColor=default;endArrow=block;endFill=1;fontStyle=1;" parent="dCYVfvfBqd2NlbiFJZVF-16" source="j7dnmn5wsTtFB2skk1Vw-23" edge="1">
                    <mxGeometry relative="1" as="geometry">
                        <mxPoint x="280" y="59" as="targetPoint"/>
                        <Array as="points">
                            <mxPoint x="314" y="114"/>
                            <mxPoint x="280" y="114"/>
                            <mxPoint x="280" y="59"/>
                        </Array>
                    </mxGeometry>
                </mxCell>
                <mxCell id="j7dnmn5wsTtFB2skk1Vw-23" value="" style="ellipse;whiteSpace=wrap;html=1;sketch=0;fillStyle=solid;fontFamily=Helvetica;fontSize=14;fillColor=#f9f7ed;direction=east;strokeColor=#000000;strokeWidth=2;fontStyle=1" parent="dCYVfvfBqd2NlbiFJZVF-16" vertex="1">
                    <mxGeometry x="234" y="168" width="160" height="80" as="geometry"/>
                </mxCell>
                <mxCell id="j7dnmn5wsTtFB2skk1Vw-24" value="" style="rounded=0;whiteSpace=wrap;html=1;sketch=0;fillColor=none;fontFamily=Helvetica;fontSize=14;strokeColor=#000000;strokeWidth=2;fontStyle=1" parent="dCYVfvfBqd2NlbiFJZVF-16" vertex="1">
                    <mxGeometry x="263" y="183" width="50" height="15" as="geometry"/>
                </mxCell>
                <mxCell id="j7dnmn5wsTtFB2skk1Vw-25" value="" style="rounded=0;whiteSpace=wrap;html=1;sketch=0;fillColor=none;fontFamily=Helvetica;fontSize=14;strokeColor=#000000;strokeWidth=2;fontStyle=1" parent="dCYVfvfBqd2NlbiFJZVF-16" vertex="1">
                    <mxGeometry x="263" y="201" width="24" height="15" as="geometry"/>
                </mxCell>
                <mxCell id="j7dnmn5wsTtFB2skk1Vw-26" value="" style="rounded=0;whiteSpace=wrap;html=1;sketch=0;fillColor=none;fontFamily=Helvetica;fontSize=14;strokeColor=#000000;strokeWidth=2;fontStyle=1" parent="dCYVfvfBqd2NlbiFJZVF-16" vertex="1">
                    <mxGeometry x="289" y="201" width="24" height="15" as="geometry"/>
                </mxCell>
                <mxCell id="j7dnmn5wsTtFB2skk1Vw-27" value="" style="rounded=0;whiteSpace=wrap;html=1;sketch=0;fillColor=none;fontFamily=Helvetica;fontSize=14;strokeColor=#000000;strokeWidth=2;fontStyle=1" parent="dCYVfvfBqd2NlbiFJZVF-16" vertex="1">
                    <mxGeometry x="323" y="183" width="50" height="15" as="geometry"/>
                </mxCell>
                <mxCell id="j7dnmn5wsTtFB2skk1Vw-28" value="" style="rounded=0;whiteSpace=wrap;html=1;sketch=0;fillColor=none;fontFamily=Helvetica;fontSize=14;strokeColor=#000000;strokeWidth=2;fontStyle=1" parent="dCYVfvfBqd2NlbiFJZVF-16" vertex="1">
                    <mxGeometry x="323" y="201" width="24" height="15" as="geometry"/>
                </mxCell>
                <mxCell id="j7dnmn5wsTtFB2skk1Vw-29" value="" style="rounded=0;whiteSpace=wrap;html=1;sketch=0;fillColor=none;fontFamily=Helvetica;fontSize=14;strokeColor=#000000;strokeWidth=2;fontStyle=1" parent="dCYVfvfBqd2NlbiFJZVF-16" vertex="1">
                    <mxGeometry x="349" y="201" width="24" height="15" as="geometry"/>
                </mxCell>
                <mxCell id="j7dnmn5wsTtFB2skk1Vw-30" value="" style="rounded=0;whiteSpace=wrap;html=1;sketch=0;fillColor=none;fontFamily=Helvetica;fontSize=14;strokeColor=#000000;strokeWidth=2;fontStyle=1" parent="dCYVfvfBqd2NlbiFJZVF-16" vertex="1">
                    <mxGeometry x="323" y="219" width="14" height="14" as="geometry"/>
                </mxCell>
                <mxCell id="j7dnmn5wsTtFB2skk1Vw-31" value="" style="rounded=0;whiteSpace=wrap;html=1;sketch=0;fillColor=none;fontFamily=Helvetica;fontSize=14;strokeColor=#000000;strokeWidth=2;fontStyle=1" parent="dCYVfvfBqd2NlbiFJZVF-16" vertex="1">
                    <mxGeometry x="341" y="219" width="14" height="14" as="geometry"/>
                </mxCell>
                <mxCell id="j7dnmn5wsTtFB2skk1Vw-32" value="" style="rounded=0;whiteSpace=wrap;html=1;sketch=0;fillColor=none;fontFamily=Helvetica;fontSize=14;strokeColor=#000000;strokeWidth=2;fontStyle=1" parent="dCYVfvfBqd2NlbiFJZVF-16" vertex="1">
                    <mxGeometry x="359" y="219" width="14" height="14" as="geometry"/>
                </mxCell>
                <mxCell id="j7dnmn5wsTtFB2skk1Vw-33" value="" style="rounded=0;whiteSpace=wrap;html=1;sketch=0;fillColor=none;fontFamily=Helvetica;fontSize=14;strokeColor=#000000;strokeWidth=2;fontStyle=1" parent="dCYVfvfBqd2NlbiFJZVF-16" vertex="1">
                    <mxGeometry x="263" y="219" width="14" height="14" as="geometry"/>
                </mxCell>
                <mxCell id="j7dnmn5wsTtFB2skk1Vw-34" value="" style="rounded=0;whiteSpace=wrap;html=1;sketch=0;fillColor=none;fontFamily=Helvetica;fontSize=14;strokeColor=#000000;strokeWidth=2;fontStyle=1" parent="dCYVfvfBqd2NlbiFJZVF-16" vertex="1">
                    <mxGeometry x="281" y="219" width="14" height="14" as="geometry"/>
                </mxCell>
                <mxCell id="j7dnmn5wsTtFB2skk1Vw-35" value="" style="rounded=0;whiteSpace=wrap;html=1;sketch=0;fillColor=none;fontFamily=Helvetica;fontSize=14;strokeColor=#000000;strokeWidth=2;fontStyle=1" parent="dCYVfvfBqd2NlbiFJZVF-16" vertex="1">
                    <mxGeometry x="299" y="219" width="14" height="14" as="geometry"/>
                </mxCell>
                <mxCell id="j7dnmn5wsTtFB2skk1Vw-68" value="" style="edgeStyle=orthogonalEdgeStyle;rounded=0;orthogonalLoop=1;jettySize=auto;html=1;entryX=0.75;entryY=1;entryDx=0;entryDy=0;sketch=0;fillColor=none;fontFamily=Helvetica;endArrow=block;endFill=1;fontSize=14;strokeColor=#000000;strokeWidth=2;fontStyle=1" parent="dCYVfvfBqd2NlbiFJZVF-16" source="j7dnmn5wsTtFB2skk1Vw-36" target="j7dnmn5wsTtFB2skk1Vw-64" edge="1">
                    <mxGeometry relative="1" as="geometry">
                        <Array as="points">
                            <mxPoint x="224" y="170"/>
                            <mxPoint x="200" y="170"/>
                        </Array>
                    </mxGeometry>
                </mxCell>
                <mxCell id="j7dnmn5wsTtFB2skk1Vw-36" value="" style="ellipse;whiteSpace=wrap;html=1;sketch=0;fillStyle=solid;fontFamily=Helvetica;fontSize=14;fillColor=#f9f7ed;strokeColor=#000000;strokeWidth=2;fontStyle=1" parent="dCYVfvfBqd2NlbiFJZVF-16" vertex="1">
                    <mxGeometry x="144" y="270" width="160" height="80" as="geometry"/>
                </mxCell>
                <mxCell id="j7dnmn5wsTtFB2skk1Vw-37" value="" style="rounded=0;whiteSpace=wrap;html=1;sketch=0;fillColor=none;fontFamily=Helvetica;fontSize=14;strokeColor=#000000;strokeWidth=2;fontStyle=1" parent="dCYVfvfBqd2NlbiFJZVF-16" vertex="1">
                    <mxGeometry x="167" y="285" width="50" height="15" as="geometry"/>
                </mxCell>
                <mxCell id="j7dnmn5wsTtFB2skk1Vw-38" value="" style="rounded=0;whiteSpace=wrap;html=1;sketch=0;fillColor=none;fontFamily=Helvetica;fontSize=14;strokeColor=#000000;strokeWidth=2;fontStyle=1" parent="dCYVfvfBqd2NlbiFJZVF-16" vertex="1">
                    <mxGeometry x="167" y="303" width="24" height="15" as="geometry"/>
                </mxCell>
                <mxCell id="j7dnmn5wsTtFB2skk1Vw-39" value="" style="rounded=0;whiteSpace=wrap;html=1;sketch=0;fillColor=none;fontFamily=Helvetica;fontSize=14;strokeColor=#000000;strokeWidth=2;fontStyle=1" parent="dCYVfvfBqd2NlbiFJZVF-16" vertex="1">
                    <mxGeometry x="193" y="303" width="24" height="15" as="geometry"/>
                </mxCell>
                <mxCell id="j7dnmn5wsTtFB2skk1Vw-40" value="" style="rounded=0;whiteSpace=wrap;html=1;sketch=0;fillColor=none;fontFamily=Helvetica;fontSize=14;strokeColor=#000000;strokeWidth=2;fontStyle=1" parent="dCYVfvfBqd2NlbiFJZVF-16" vertex="1">
                    <mxGeometry x="227" y="285" width="50" height="15" as="geometry"/>
                </mxCell>
                <mxCell id="j7dnmn5wsTtFB2skk1Vw-41" value="" style="rounded=0;whiteSpace=wrap;html=1;sketch=0;fillColor=none;fontFamily=Helvetica;fontSize=14;strokeColor=#000000;strokeWidth=2;fontStyle=1" parent="dCYVfvfBqd2NlbiFJZVF-16" vertex="1">
                    <mxGeometry x="227" y="303" width="24" height="15" as="geometry"/>
                </mxCell>
                <mxCell id="j7dnmn5wsTtFB2skk1Vw-42" value="" style="rounded=0;whiteSpace=wrap;html=1;sketch=0;fillColor=none;fontFamily=Helvetica;fontSize=14;strokeColor=#000000;strokeWidth=2;fontStyle=1" parent="dCYVfvfBqd2NlbiFJZVF-16" vertex="1">
                    <mxGeometry x="253" y="303" width="24" height="15" as="geometry"/>
                </mxCell>
                <mxCell id="j7dnmn5wsTtFB2skk1Vw-43" value="" style="rounded=0;whiteSpace=wrap;html=1;sketch=0;fillColor=none;fontFamily=Helvetica;fontSize=14;strokeColor=#000000;strokeWidth=2;fontStyle=1" parent="dCYVfvfBqd2NlbiFJZVF-16" vertex="1">
                    <mxGeometry x="227" y="321" width="14" height="14" as="geometry"/>
                </mxCell>
                <mxCell id="j7dnmn5wsTtFB2skk1Vw-44" value="" style="rounded=0;whiteSpace=wrap;html=1;sketch=0;fillColor=none;fontFamily=Helvetica;fontSize=14;strokeColor=#000000;strokeWidth=2;fontStyle=1" parent="dCYVfvfBqd2NlbiFJZVF-16" vertex="1">
                    <mxGeometry x="245" y="321" width="14" height="14" as="geometry"/>
                </mxCell>
                <mxCell id="j7dnmn5wsTtFB2skk1Vw-45" value="" style="rounded=0;whiteSpace=wrap;html=1;sketch=0;fillColor=none;fontFamily=Helvetica;fontSize=14;strokeColor=#000000;strokeWidth=2;fontStyle=1" parent="dCYVfvfBqd2NlbiFJZVF-16" vertex="1">
                    <mxGeometry x="263" y="321" width="14" height="14" as="geometry"/>
                </mxCell>
                <mxCell id="j7dnmn5wsTtFB2skk1Vw-46" value="" style="rounded=0;whiteSpace=wrap;html=1;sketch=0;fillColor=none;fontFamily=Helvetica;fontSize=14;strokeColor=#000000;strokeWidth=2;fontStyle=1" parent="dCYVfvfBqd2NlbiFJZVF-16" vertex="1">
                    <mxGeometry x="167" y="321" width="14" height="14" as="geometry"/>
                </mxCell>
                <mxCell id="j7dnmn5wsTtFB2skk1Vw-47" value="" style="rounded=0;whiteSpace=wrap;html=1;sketch=0;fillColor=none;fontFamily=Helvetica;fontSize=14;strokeColor=#000000;strokeWidth=2;fontStyle=1" parent="dCYVfvfBqd2NlbiFJZVF-16" vertex="1">
                    <mxGeometry x="185" y="321" width="14" height="14" as="geometry"/>
                </mxCell>
                <mxCell id="j7dnmn5wsTtFB2skk1Vw-48" value="" style="rounded=0;whiteSpace=wrap;html=1;sketch=0;fillColor=none;fontFamily=Helvetica;fontSize=14;strokeColor=#000000;strokeWidth=2;fontStyle=1" parent="dCYVfvfBqd2NlbiFJZVF-16" vertex="1">
                    <mxGeometry x="203" y="321" width="14" height="14" as="geometry"/>
                </mxCell>
                <mxCell id="j7dnmn5wsTtFB2skk1Vw-8" value="" style="rounded=0;whiteSpace=wrap;html=1;sketch=0;fillColor=none;fontFamily=Helvetica;fontSize=14;strokeColor=#000000;strokeWidth=2;fontStyle=1" parent="dCYVfvfBqd2NlbiFJZVF-16" vertex="1">
                    <mxGeometry x="79" y="219" width="14" height="14" as="geometry"/>
                </mxCell>
                <mxCell id="j7dnmn5wsTtFB2skk1Vw-9" value="" style="rounded=0;whiteSpace=wrap;html=1;sketch=0;fillColor=none;fontFamily=Helvetica;fontSize=14;strokeColor=#000000;strokeWidth=2;fontStyle=1" parent="dCYVfvfBqd2NlbiFJZVF-16" vertex="1">
                    <mxGeometry x="97" y="219" width="14" height="14" as="geometry"/>
                </mxCell>
                <mxCell id="j7dnmn5wsTtFB2skk1Vw-10" value="" style="rounded=0;whiteSpace=wrap;html=1;sketch=0;fillColor=none;fontFamily=Helvetica;fontSize=14;strokeColor=#000000;strokeWidth=2;fontStyle=1" parent="dCYVfvfBqd2NlbiFJZVF-16" vertex="1">
                    <mxGeometry x="115" y="219" width="14" height="14" as="geometry"/>
                </mxCell>
                <mxCell id="j7dnmn5wsTtFB2skk1Vw-50" value="" style="ellipse;whiteSpace=wrap;html=1;sketch=0;fillStyle=solid;fontFamily=Helvetica;fontSize=14;fillColor=#f9f7ed;strokeColor=#000000;strokeWidth=2;fontStyle=1" parent="dCYVfvfBqd2NlbiFJZVF-16" vertex="1">
                    <mxGeometry x="330" y="270" width="160" height="80" as="geometry"/>
                </mxCell>
                <mxCell id="j7dnmn5wsTtFB2skk1Vw-51" value="" style="rounded=0;whiteSpace=wrap;html=1;sketch=0;fillColor=none;fontFamily=Helvetica;fontSize=14;strokeColor=#000000;strokeWidth=2;fontStyle=1" parent="dCYVfvfBqd2NlbiFJZVF-16" vertex="1">
                    <mxGeometry x="358" y="285" width="50" height="15" as="geometry"/>
                </mxCell>
                <mxCell id="j7dnmn5wsTtFB2skk1Vw-52" value="" style="rounded=0;whiteSpace=wrap;html=1;sketch=0;fillColor=none;fontFamily=Helvetica;fontSize=14;strokeColor=#000000;strokeWidth=2;fontStyle=1" parent="dCYVfvfBqd2NlbiFJZVF-16" vertex="1">
                    <mxGeometry x="358" y="303" width="24" height="15" as="geometry"/>
                </mxCell>
                <mxCell id="j7dnmn5wsTtFB2skk1Vw-53" value="" style="rounded=0;whiteSpace=wrap;html=1;sketch=0;fillColor=none;fontFamily=Helvetica;fontSize=14;strokeColor=#000000;strokeWidth=2;fontStyle=1" parent="dCYVfvfBqd2NlbiFJZVF-16" vertex="1">
                    <mxGeometry x="384" y="303" width="24" height="15" as="geometry"/>
                </mxCell>
                <mxCell id="j7dnmn5wsTtFB2skk1Vw-54" value="" style="rounded=0;whiteSpace=wrap;html=1;sketch=0;fillColor=none;fontFamily=Helvetica;fontSize=14;strokeColor=#000000;strokeWidth=2;fontStyle=1" parent="dCYVfvfBqd2NlbiFJZVF-16" vertex="1">
                    <mxGeometry x="418" y="285" width="50" height="15" as="geometry"/>
                </mxCell>
                <mxCell id="j7dnmn5wsTtFB2skk1Vw-55" value="" style="rounded=0;whiteSpace=wrap;html=1;sketch=0;fillColor=none;fontFamily=Helvetica;fontSize=14;strokeColor=#000000;strokeWidth=2;fontStyle=1" parent="dCYVfvfBqd2NlbiFJZVF-16" vertex="1">
                    <mxGeometry x="418" y="303" width="24" height="15" as="geometry"/>
                </mxCell>
                <mxCell id="j7dnmn5wsTtFB2skk1Vw-56" value="" style="rounded=0;whiteSpace=wrap;html=1;sketch=0;fillColor=none;fontFamily=Helvetica;fontSize=14;strokeColor=#000000;strokeWidth=2;fontStyle=1" parent="dCYVfvfBqd2NlbiFJZVF-16" vertex="1">
                    <mxGeometry x="444" y="303" width="24" height="15" as="geometry"/>
                </mxCell>
                <mxCell id="j7dnmn5wsTtFB2skk1Vw-57" value="" style="rounded=0;whiteSpace=wrap;html=1;sketch=0;fillColor=none;fontFamily=Helvetica;fontSize=14;strokeColor=#000000;strokeWidth=2;fontStyle=1" parent="dCYVfvfBqd2NlbiFJZVF-16" vertex="1">
                    <mxGeometry x="418" y="321" width="14" height="14" as="geometry"/>
                </mxCell>
                <mxCell id="j7dnmn5wsTtFB2skk1Vw-58" value="" style="rounded=0;whiteSpace=wrap;html=1;sketch=0;fillColor=none;fontFamily=Helvetica;fontSize=14;strokeColor=#000000;strokeWidth=2;fontStyle=1" parent="dCYVfvfBqd2NlbiFJZVF-16" vertex="1">
                    <mxGeometry x="436" y="321" width="14" height="14" as="geometry"/>
                </mxCell>
                <mxCell id="j7dnmn5wsTtFB2skk1Vw-59" value="" style="rounded=0;whiteSpace=wrap;html=1;sketch=0;fillColor=none;fontFamily=Helvetica;fontSize=14;strokeColor=#000000;strokeWidth=2;fontStyle=1" parent="dCYVfvfBqd2NlbiFJZVF-16" vertex="1">
                    <mxGeometry x="454" y="321" width="14" height="14" as="geometry"/>
                </mxCell>
                <mxCell id="j7dnmn5wsTtFB2skk1Vw-60" value="" style="rounded=0;whiteSpace=wrap;html=1;sketch=0;fillColor=none;fontFamily=Helvetica;fontSize=14;strokeColor=#000000;strokeWidth=2;fontStyle=1" parent="dCYVfvfBqd2NlbiFJZVF-16" vertex="1">
                    <mxGeometry x="358" y="321" width="14" height="14" as="geometry"/>
                </mxCell>
                <mxCell id="j7dnmn5wsTtFB2skk1Vw-61" value="" style="rounded=0;whiteSpace=wrap;html=1;sketch=0;fillColor=none;fontFamily=Helvetica;fontSize=14;strokeColor=#000000;strokeWidth=2;fontStyle=1" parent="dCYVfvfBqd2NlbiFJZVF-16" vertex="1">
                    <mxGeometry x="376" y="321" width="14" height="14" as="geometry"/>
                </mxCell>
                <mxCell id="j7dnmn5wsTtFB2skk1Vw-62" value="" style="rounded=0;whiteSpace=wrap;html=1;sketch=0;fillColor=none;fontFamily=Helvetica;fontSize=14;strokeColor=#000000;strokeWidth=2;fontStyle=1" parent="dCYVfvfBqd2NlbiFJZVF-16" vertex="1">
                    <mxGeometry x="394" y="321" width="14" height="14" as="geometry"/>
                </mxCell>
                <mxCell id="j7dnmn5wsTtFB2skk1Vw-70" value="" style="edgeStyle=orthogonalEdgeStyle;rounded=0;orthogonalLoop=1;jettySize=auto;html=1;exitX=0.5;exitY=0;exitDx=0;exitDy=0;sketch=0;fillColor=none;fontFamily=Helvetica;endArrow=block;endFill=1;fontSize=14;strokeColor=#000000;strokeWidth=2;fontStyle=1;" parent="dCYVfvfBqd2NlbiFJZVF-16" source="j7dnmn5wsTtFB2skk1Vw-50" edge="1">
                    <mxGeometry relative="1" as="geometry">
                        <mxPoint x="324" y="178" as="sourcePoint"/>
                        <mxPoint x="394" y="122" as="targetPoint"/>
                        <Array as="points">
                            <mxPoint x="410" y="170"/>
                            <mxPoint x="394" y="170"/>
                        </Array>
                    </mxGeometry>
                </mxCell>
                <mxCell id="dCYVfvfBqd2NlbiFJZVF-20" value="" style="edgeStyle=orthogonalEdgeStyle;rounded=0;orthogonalLoop=1;jettySize=auto;html=1;dashed=1;endArrow=block;endFill=1;sketch=0;fontFamily=Helvetica;fontSize=14;strokeColor=#000000;strokeWidth=2;dashPattern=1 1;fontStyle=1" parent="1" edge="1">
                    <mxGeometry relative="1" as="geometry">
                        <mxPoint x="230" y="270" as="sourcePoint"/>
                        <mxPoint x="230" y="310" as="targetPoint"/>
                        <Array as="points">
                            <mxPoint x="230" y="310"/>
                        </Array>
                    </mxGeometry>
                </mxCell>
                <mxCell id="dCYVfvfBqd2NlbiFJZVF-21" value="" style="edgeStyle=orthogonalEdgeStyle;rounded=0;orthogonalLoop=1;jettySize=auto;html=1;dashed=1;endArrow=block;endFill=1;sketch=0;fontFamily=Helvetica;fontSize=14;strokeColor=#000000;strokeWidth=2;dashPattern=1 1;fontStyle=1" parent="1" edge="1">
                    <mxGeometry relative="1" as="geometry">
                        <mxPoint x="890" y="270" as="sourcePoint"/>
                        <mxPoint x="890" y="310" as="targetPoint"/>
                        <Array as="points">
                            <mxPoint x="890" y="270"/>
                        </Array>
                    </mxGeometry>
                </mxCell>
                <mxCell id="dCYVfvfBqd2NlbiFJZVF-22" value="" style="edgeStyle=orthogonalEdgeStyle;rounded=0;orthogonalLoop=1;jettySize=auto;html=1;dashed=1;endArrow=block;endFill=1;sketch=0;fontFamily=Helvetica;fontSize=14;strokeColor=#000000;entryX=0.5;entryY=0;entryDx=0;entryDy=0;strokeWidth=2;dashPattern=1 1;fontStyle=1" parent="1" target="dCYVfvfBqd2NlbiFJZVF-45" edge="1">
                    <mxGeometry relative="1" as="geometry">
                        <mxPoint x="565" y="270" as="sourcePoint"/>
                        <mxPoint x="490" y="310" as="targetPoint"/>
                        <Array as="points">
                            <mxPoint x="565" y="290"/>
                            <mxPoint x="565" y="290"/>
                        </Array>
                    </mxGeometry>
                </mxCell>
                <mxCell id="dCYVfvfBqd2NlbiFJZVF-44" value="" style="edgeStyle=orthogonalEdgeStyle;rounded=0;orthogonalLoop=1;jettySize=auto;html=1;exitX=0.75;exitY=1;exitDx=0;exitDy=0;entryX=0.75;entryY=0;entryDx=0;entryDy=0;dashed=1;endArrow=block;endFill=1;sketch=0;fontFamily=Helvetica;fontSize=14;strokeColor=#000000;strokeWidth=2;dashPattern=1 1;fontStyle=1" parent="1" source="dCYVfvfBqd2NlbiFJZVF-7" target="dCYVfvfBqd2NlbiFJZVF-8" edge="1">
                    <mxGeometry relative="1" as="geometry">
                        <mxPoint x="370" y="140" as="sourcePoint"/>
                        <mxPoint x="370" y="180" as="targetPoint"/>
                        <Array as="points">
                            <mxPoint x="798" y="140"/>
                            <mxPoint x="798" y="140"/>
                        </Array>
                    </mxGeometry>
                </mxCell>
                <mxCell id="dCYVfvfBqd2NlbiFJZVF-45" value="Auth Channels" style="swimlane;horizontal=0;fontStyle=1;sketch=0;fontFamily=Helvetica;fillColor=#f8cecc;strokeColor=#000000;fontSize=14;strokeWidth=2;" parent="1" vertex="1">
                    <mxGeometry x="100" y="310" width="930" height="110" as="geometry">
                        <mxRectangle x="100" y="170" width="30" height="60" as="alternateBounds"/>
                    </mxGeometry>
                </mxCell>
                <mxCell id="dCYVfvfBqd2NlbiFJZVF-51" value="Identity Provider" style="shape=trapezoid;perimeter=trapezoidPerimeter;whiteSpace=wrap;html=1;fixedSize=1;sketch=0;fillStyle=solid;strokeColor=#000000;fillColor=#ffe6cc;labelPosition=center;verticalLabelPosition=bottom;align=center;verticalAlign=top;fontFamily=Helvetica;fontSize=14;strokeWidth=2;fontStyle=1;" parent="dCYVfvfBqd2NlbiFJZVF-45" vertex="1">
                    <mxGeometry x="380" y="23" width="161.83" height="50" as="geometry"/>
                </mxCell>
                <mxCell id="o24XuK63UDQuEkNAiOs7-44" value="" style="sketch=0;points=[[0,0,0],[0.25,0,0],[0.5,0,0],[0.75,0,0],[1,0,0],[0,1,0],[0.25,1,0],[0.5,1,0],[0.75,1,0],[1,1,0],[0,0.25,0],[0,0.5,0],[0,0.75,0],[1,0.25,0],[1,0.5,0],[1,0.75,0]];outlineConnect=0;fontColor=#232F3E;gradientColor=none;gradientDirection=north;fillColor=none;strokeColor=#000000;dashed=0;verticalLabelPosition=bottom;verticalAlign=top;align=center;html=1;fontSize=14;fontStyle=1;aspect=fixed;shape=mxgraph.aws4.resourceIcon;resIcon=mxgraph.aws4.single_sign_on;labelBorderColor=none;fillStyle=auto;strokeWidth=2;fontFamily=Helvetica;" parent="dCYVfvfBqd2NlbiFJZVF-45" vertex="1">
                    <mxGeometry x="434.90999999999997" y="23" width="50" height="50" as="geometry"/>
                </mxCell>
                <mxCell id="dCYVfvfBqd2NlbiFJZVF-53" value="" style="edgeStyle=orthogonalEdgeStyle;rounded=0;orthogonalLoop=1;jettySize=auto;html=1;entryX=0.25;entryY=0;entryDx=0;entryDy=0;dashed=1;endArrow=block;endFill=1;sketch=0;fontFamily=Helvetica;fontSize=14;strokeColor=#000000;strokeWidth=2;dashPattern=1 1;fontStyle=1" parent="1" target="dCYVfvfBqd2NlbiFJZVF-16" edge="1">
                    <mxGeometry relative="1" as="geometry">
                        <mxPoint x="230" y="420" as="sourcePoint"/>
                        <mxPoint x="240" y="320" as="targetPoint"/>
                    </mxGeometry>
                </mxCell>
                <mxCell id="dCYVfvfBqd2NlbiFJZVF-54" value="" style="edgeStyle=orthogonalEdgeStyle;rounded=0;orthogonalLoop=1;jettySize=auto;html=1;dashed=1;endArrow=block;endFill=1;exitX=0.5;exitY=1;exitDx=0;exitDy=0;sketch=0;fontFamily=Helvetica;fontSize=14;strokeColor=#000000;strokeWidth=2;dashPattern=1 1;fontStyle=1" parent="1" source="dCYVfvfBqd2NlbiFJZVF-45" edge="1">
                    <mxGeometry relative="1" as="geometry">
                        <mxPoint x="240" y="440" as="sourcePoint"/>
                        <mxPoint x="565" y="460" as="targetPoint"/>
                    </mxGeometry>
                </mxCell>
                <mxCell id="j7dnmn5wsTtFB2skk1Vw-139" value="Base Framework" style="swimlane;horizontal=0;fontStyle=1;sketch=0;fontFamily=Helvetica;startSize=23;fillColor=#f8cecc;strokeColor=#000000;fontSize=14;strokeWidth=2;" parent="1" vertex="1">
                    <mxGeometry x="100" y="891" width="520" height="159" as="geometry">
                        <mxRectangle x="100" y="170" width="30" height="60" as="alternateBounds"/>
                    </mxGeometry>
                </mxCell>
                <mxCell id="j7dnmn5wsTtFB2skk1Vw-146" value="Notification Mgmt Service" style="shape=process;whiteSpace=wrap;html=1;backgroundOutline=1;rounded=0;glass=0;sketch=0;curveFitting=0.95;fontFamily=Helvetica;strokeWidth=2;fillColor=#ffe6cc;fontSize=14;strokeColor=#000000;fontStyle=1;" parent="j7dnmn5wsTtFB2skk1Vw-139" vertex="1">
                    <mxGeometry x="210" y="19" width="120" height="40" as="geometry"/>
                </mxCell>
                <mxCell id="j7dnmn5wsTtFB2skk1Vw-148" value="Audit Service" style="shape=process;whiteSpace=wrap;html=1;backgroundOutline=1;rounded=0;glass=0;sketch=0;curveFitting=0.95;fontFamily=Helvetica;strokeWidth=2;fillColor=#ffe6cc;fontSize=14;strokeColor=#000000;fontStyle=1;" parent="j7dnmn5wsTtFB2skk1Vw-139" vertex="1">
                    <mxGeometry x="40" y="19" width="120" height="40" as="geometry"/>
                </mxCell>
                <mxCell id="j7dnmn5wsTtFB2skk1Vw-151" value="Logging Service" style="shape=process;whiteSpace=wrap;html=1;backgroundOutline=1;rounded=0;glass=0;sketch=0;curveFitting=0.95;fontFamily=Helvetica;strokeWidth=2;fillColor=#ffe6cc;fontSize=14;strokeColor=#000000;fontStyle=1;" parent="j7dnmn5wsTtFB2skk1Vw-139" vertex="1">
                    <mxGeometry x="380" y="19" width="120" height="40" as="geometry"/>
                </mxCell>
                <mxCell id="j7dnmn5wsTtFB2skk1Vw-153" value="Identity Service" style="shape=process;whiteSpace=wrap;html=1;backgroundOutline=1;rounded=0;glass=0;sketch=0;curveFitting=0.95;fontFamily=Helvetica;strokeWidth=2;fillColor=#ffe6cc;fontSize=14;strokeColor=#000000;fontStyle=1;" parent="j7dnmn5wsTtFB2skk1Vw-139" vertex="1">
                    <mxGeometry x="40" y="89" width="120" height="40" as="geometry"/>
                </mxCell>
                <mxCell id="4" value="Cross-Cutting Service n..." style="shape=process;whiteSpace=wrap;html=1;backgroundOutline=1;rounded=0;glass=0;sketch=0;curveFitting=0.95;fontFamily=Helvetica;strokeWidth=2;fillColor=#ffe6cc;fontSize=14;strokeColor=#000000;fontStyle=1;" parent="j7dnmn5wsTtFB2skk1Vw-139" vertex="1">
                    <mxGeometry x="210" y="89" width="120" height="40" as="geometry"/>
                </mxCell>
                <mxCell id="j7dnmn5wsTtFB2skk1Vw-154" value="" style="edgeStyle=orthogonalEdgeStyle;rounded=0;orthogonalLoop=1;jettySize=auto;html=1;dashed=1;endArrow=block;endFill=1;sketch=0;fontFamily=Helvetica;exitX=0.25;exitY=1;exitDx=0;exitDy=0;fillColor=none;fontSize=14;strokeColor=#000000;strokeWidth=2;dashPattern=1 1;fontStyle=1" parent="1" source="dCYVfvfBqd2NlbiFJZVF-16" edge="1">
                    <mxGeometry relative="1" as="geometry">
                        <mxPoint x="240" y="430" as="sourcePoint"/>
                        <mxPoint x="230" y="890" as="targetPoint"/>
                    </mxGeometry>
                </mxCell>
                <mxCell id="j7dnmn5wsTtFB2skk1Vw-155" value="" style="edgeStyle=orthogonalEdgeStyle;rounded=0;orthogonalLoop=1;jettySize=auto;html=1;entryX=0.5;entryY=0;entryDx=0;entryDy=0;dashed=1;endArrow=block;endFill=1;exitX=0.5;exitY=1;exitDx=0;exitDy=0;sketch=0;fontFamily=Helvetica;fillColor=none;fontSize=14;strokeColor=#000000;strokeWidth=2;dashPattern=1 1;fontStyle=1" parent="1" source="dCYVfvfBqd2NlbiFJZVF-16" target="j7dnmn5wsTtFB2skk1Vw-139" edge="1">
                    <mxGeometry relative="1" as="geometry">
                        <mxPoint x="370" y="430" as="sourcePoint"/>
                        <mxPoint x="370" y="470" as="targetPoint"/>
                    </mxGeometry>
                </mxCell>
                <mxCell id="j7dnmn5wsTtFB2skk1Vw-156" value="" style="edgeStyle=orthogonalEdgeStyle;rounded=0;orthogonalLoop=1;jettySize=auto;html=1;entryX=0.75;entryY=0;entryDx=0;entryDy=0;dashed=1;endArrow=block;endFill=1;sketch=0;fontFamily=Helvetica;fillColor=none;fontSize=14;strokeColor=#000000;strokeWidth=2;dashPattern=1 1;fontStyle=1" parent="1" target="j7dnmn5wsTtFB2skk1Vw-139" edge="1">
                    <mxGeometry relative="1" as="geometry">
                        <mxPoint x="490" y="850" as="sourcePoint"/>
                        <mxPoint x="500" y="470" as="targetPoint"/>
                    </mxGeometry>
                </mxCell>
                <mxCell id="j7dnmn5wsTtFB2skk1Vw-181" value="Cloud Infra" style="swimlane;horizontal=0;fontStyle=1;sketch=0;fontFamily=Helvetica;startSize=23;fillColor=#f8cecc;strokeColor=#000000;fontSize=14;strokeWidth=2;" parent="1" vertex="1">
                    <mxGeometry x="101" y="1087.25" width="520" height="131" as="geometry">
                        <mxRectangle x="100" y="170" width="30" height="60" as="alternateBounds"/>
                    </mxGeometry>
                </mxCell>
                <mxCell id="j7dnmn5wsTtFB2skk1Vw-193" value="Cloud Network" style="ellipse;shape=cloud;whiteSpace=wrap;html=1;rounded=0;glass=0;sketch=0;curveFitting=0.95;fontFamily=Helvetica;strokeWidth=2;fillColor=#ffe6cc;fontSize=14;strokeColor=#000000;fontStyle=1;" parent="j7dnmn5wsTtFB2skk1Vw-181" vertex="1">
                    <mxGeometry x="31" y="11" width="149" height="49" as="geometry"/>
                </mxCell>
                <mxCell id="j7dnmn5wsTtFB2skk1Vw-194" value="Cloud Compute" style="ellipse;shape=cloud;whiteSpace=wrap;html=1;rounded=0;glass=0;sketch=0;curveFitting=0.95;fontFamily=Helvetica;strokeWidth=2;fillColor=#ffe6cc;fontSize=14;strokeColor=#000000;fontStyle=1;" parent="j7dnmn5wsTtFB2skk1Vw-181" vertex="1">
                    <mxGeometry x="195.5" y="11" width="154.5" height="49" as="geometry"/>
                </mxCell>
                <mxCell id="j7dnmn5wsTtFB2skk1Vw-195" value="Cloud Storage" style="ellipse;shape=cloud;whiteSpace=wrap;html=1;rounded=0;glass=0;sketch=0;curveFitting=0.95;fontFamily=Helvetica;strokeWidth=2;fontStyle=1;fillColor=#ffe6cc;fontSize=14;strokeColor=#000000;" parent="j7dnmn5wsTtFB2skk1Vw-181" vertex="1">
                    <mxGeometry x="360" y="10" width="160" height="50" as="geometry"/>
                </mxCell>
                <mxCell id="j7dnmn5wsTtFB2skk1Vw-196" value="Cloud CDN" style="ellipse;shape=cloud;whiteSpace=wrap;html=1;rounded=0;glass=0;sketch=0;curveFitting=0.95;fontFamily=Helvetica;strokeWidth=2;fillColor=#ffe6cc;fontSize=14;strokeColor=#000000;fontStyle=1;" parent="j7dnmn5wsTtFB2skk1Vw-181" vertex="1">
                    <mxGeometry x="31" y="71" width="149" height="49" as="geometry"/>
                </mxCell>
                <mxCell id="j7dnmn5wsTtFB2skk1Vw-197" value="Cloud API &lt;br style=&quot;font-size: 14px;&quot;&gt;Gateway" style="ellipse;shape=cloud;whiteSpace=wrap;html=1;rounded=0;glass=0;sketch=0;curveFitting=0.95;fontFamily=Helvetica;strokeWidth=2;fillColor=#ffe6cc;fontSize=14;strokeColor=#000000;fontStyle=1;" parent="j7dnmn5wsTtFB2skk1Vw-181" vertex="1">
                    <mxGeometry x="195.5" y="71" width="154.5" height="49" as="geometry"/>
                </mxCell>
                <mxCell id="j7dnmn5wsTtFB2skk1Vw-198" value="&lt;br style=&quot;font-size: 14px;&quot;&gt;Cloud Service &lt;br style=&quot;font-size: 14px;&quot;&gt;n..." style="ellipse;shape=cloud;whiteSpace=wrap;html=1;rounded=0;glass=0;sketch=0;curveFitting=0.95;fontFamily=Helvetica;strokeWidth=2;fillColor=#ffe6cc;fontSize=14;strokeColor=#000000;fontStyle=1;" parent="j7dnmn5wsTtFB2skk1Vw-181" vertex="1">
                    <mxGeometry x="361" y="66" width="159" height="59" as="geometry"/>
                </mxCell>
                <mxCell id="j7dnmn5wsTtFB2skk1Vw-199" value="" style="edgeStyle=orthogonalEdgeStyle;rounded=0;orthogonalLoop=1;jettySize=auto;html=1;dashed=1;endArrow=block;endFill=1;sketch=0;fontFamily=Helvetica;exitX=0.25;exitY=1;exitDx=0;exitDy=0;entryX=0.25;entryY=0;entryDx=0;entryDy=0;fillColor=none;fontSize=14;strokeColor=#000000;strokeWidth=2;dashPattern=1 1;fontStyle=1" parent="1" source="j7dnmn5wsTtFB2skk1Vw-139" target="j7dnmn5wsTtFB2skk1Vw-181" edge="1">
                    <mxGeometry relative="1" as="geometry">
                        <mxPoint x="240" y="860" as="sourcePoint"/>
                        <mxPoint x="240" y="900" as="targetPoint"/>
                    </mxGeometry>
                </mxCell>
                <mxCell id="j7dnmn5wsTtFB2skk1Vw-200" value="" style="edgeStyle=orthogonalEdgeStyle;rounded=0;orthogonalLoop=1;jettySize=auto;html=1;entryX=0.5;entryY=0;entryDx=0;entryDy=0;dashed=1;endArrow=block;endFill=1;exitX=0.5;exitY=1;exitDx=0;exitDy=0;sketch=0;fontFamily=Helvetica;fillColor=none;fontSize=14;strokeColor=#000000;strokeWidth=2;dashPattern=1 1;fontStyle=1" parent="1" source="j7dnmn5wsTtFB2skk1Vw-139" target="j7dnmn5wsTtFB2skk1Vw-181" edge="1">
                    <mxGeometry relative="1" as="geometry">
                        <mxPoint x="370" y="860" as="sourcePoint"/>
                        <mxPoint x="370" y="901" as="targetPoint"/>
                    </mxGeometry>
                </mxCell>
                <mxCell id="j7dnmn5wsTtFB2skk1Vw-201" value="" style="edgeStyle=orthogonalEdgeStyle;rounded=0;orthogonalLoop=1;jettySize=auto;html=1;entryX=0.75;entryY=0;entryDx=0;entryDy=0;dashed=1;endArrow=block;endFill=1;sketch=0;fontFamily=Helvetica;exitX=0.75;exitY=1;exitDx=0;exitDy=0;fillColor=none;fontSize=14;strokeColor=#000000;strokeWidth=2;dashPattern=1 1;fontStyle=1" parent="1" source="j7dnmn5wsTtFB2skk1Vw-139" target="j7dnmn5wsTtFB2skk1Vw-181" edge="1">
                    <mxGeometry relative="1" as="geometry">
                        <mxPoint x="500" y="860" as="sourcePoint"/>
                        <mxPoint x="500" y="901" as="targetPoint"/>
                    </mxGeometry>
                </mxCell>
                <mxCell id="j7dnmn5wsTtFB2skk1Vw-204" value="" style="html=1;shadow=0;dashed=0;align=center;verticalAlign=middle;shape=mxgraph.arrows2.arrow;dy=0;dx=10;notch=10;rounded=0;glass=0;sketch=0;curveFitting=0.95;fontFamily=Helvetica;strokeWidth=2;direction=south;fillColor=#f8cecc;fontSize=14;strokeColor=#000000;fontStyle=1;" parent="1" vertex="1">
                    <mxGeometry x="652.5" y="458" width="50" height="760" as="geometry"/>
                </mxCell>
                <mxCell id="j7dnmn5wsTtFB2skk1Vw-205" value="Data Pipelines And Triggers" style="text;html=1;fillColor=none;align=center;verticalAlign=middle;whiteSpace=wrap;rounded=0;glass=0;sketch=0;curveFitting=0.95;fontFamily=Helvetica;rotation=270;fontSize=14;strokeColor=none;strokeWidth=2;fontStyle=1" parent="1" vertex="1">
                    <mxGeometry x="550" y="820" width="255" height="30" as="geometry"/>
                </mxCell>
                <mxCell id="j7dnmn5wsTtFB2skk1Vw-216" value="Data Migration" style="rounded=0;whiteSpace=wrap;html=1;glass=0;sketch=0;curveFitting=0.95;fontFamily=Helvetica;strokeWidth=2;labelPosition=center;verticalLabelPosition=bottom;align=center;verticalAlign=top;fillColor=none;fontSize=14;strokeColor=#000000;fontStyle=1" parent="1" vertex="1">
                    <mxGeometry x="742.5" y="465.75" width="287.5" height="248.25" as="geometry"/>
                </mxCell>
                <mxCell id="o24XuK63UDQuEkNAiOs7-14" style="edgeStyle=orthogonalEdgeStyle;rounded=0;sketch=0;orthogonalLoop=1;jettySize=auto;html=1;exitX=0.5;exitY=1;exitDx=0;exitDy=0;entryX=0.5;entryY=0;entryDx=0;entryDy=0;fontFamily=Helvetica;fontSize=14;fontColor=default;endArrow=block;endFill=1;strokeColor=#000000;strokeWidth=2;fontStyle=1" parent="1" source="j7dnmn5wsTtFB2skk1Vw-218" target="4K5F5Y6OQbXnlRR6bUAm-1" edge="1">
                    <mxGeometry relative="1" as="geometry"/>
                </mxCell>
                <mxCell id="j7dnmn5wsTtFB2skk1Vw-218" value="Data Store (Staging)" style="rounded=1;whiteSpace=wrap;html=1;glass=0;sketch=0;curveFitting=0.95;fontFamily=Helvetica;strokeWidth=2;fillColor=#ffe6cc;verticalAlign=bottom;fontSize=14;strokeColor=#000000;fontStyle=1" parent="1" vertex="1">
                    <mxGeometry x="830" y="480" width="110" height="87.25" as="geometry"/>
                </mxCell>
                <mxCell id="j7dnmn5wsTtFB2skk1Vw-221" value="Reports &amp;amp; Analytics" style="rounded=0;whiteSpace=wrap;html=1;glass=0;sketch=0;curveFitting=0.95;fontFamily=Helvetica;strokeWidth=2;labelPosition=center;verticalLabelPosition=bottom;align=center;verticalAlign=top;fillColor=none;fontSize=14;strokeColor=#000000;fontStyle=1" parent="1" vertex="1">
                    <mxGeometry x="740" y="780" width="290" height="400" as="geometry"/>
                </mxCell>
                <mxCell id="j7dnmn5wsTtFB2skk1Vw-223" value="Visualisation" style="rounded=1;whiteSpace=wrap;html=1;glass=0;sketch=0;curveFitting=0.95;fontFamily=Helvetica;strokeWidth=2;fillColor=#ffe6cc;verticalAlign=bottom;fontSize=14;strokeColor=#000000;fontStyle=1" parent="1" vertex="1">
                    <mxGeometry x="826" y="1080" width="110" height="80" as="geometry"/>
                </mxCell>
                <mxCell id="4K5F5Y6OQbXnlRR6bUAm-1" value="Enterprise Data Warehouse" style="rounded=1;whiteSpace=wrap;html=1;glass=0;sketch=0;curveFitting=0.95;fontFamily=Helvetica;strokeWidth=2;fillColor=#ffe6cc;verticalAlign=bottom;fontSize=14;strokeColor=#000000;fontStyle=1" parent="1" vertex="1">
                    <mxGeometry x="830" y="607.91" width="110" height="94.19" as="geometry"/>
                </mxCell>
                <mxCell id="o24XuK63UDQuEkNAiOs7-40" style="edgeStyle=orthogonalEdgeStyle;rounded=0;sketch=0;orthogonalLoop=1;jettySize=auto;html=1;exitX=0.5;exitY=1;exitDx=0;exitDy=0;entryX=0.5;entryY=0;entryDx=0;entryDy=0;fontFamily=Helvetica;fontSize=14;fontColor=default;endArrow=block;endFill=1;strokeColor=#000000;strokeWidth=2;fontStyle=1" parent="1" source="o24XuK63UDQuEkNAiOs7-4" target="j7dnmn5wsTtFB2skk1Vw-223" edge="1">
                    <mxGeometry relative="1" as="geometry"/>
                </mxCell>
                <mxCell id="o24XuK63UDQuEkNAiOs7-4" value="Data Analytics" style="rounded=1;whiteSpace=wrap;html=1;glass=0;sketch=0;curveFitting=0.95;fontFamily=Helvetica;strokeWidth=2;fillColor=#ffe6cc;verticalAlign=bottom;fontSize=14;strokeColor=#000000;fontStyle=1" parent="1" vertex="1">
                    <mxGeometry x="826.25" y="938" width="110" height="90" as="geometry"/>
                </mxCell>
                <mxCell id="o24XuK63UDQuEkNAiOs7-10" value="" style="strokeWidth=2;html=1;shape=mxgraph.flowchart.database;whiteSpace=wrap;fontFamily=Helvetica;fontSize=14;fillColor=none;strokeColor=#000000;sketch=0;fontStyle=1" parent="1" vertex="1">
                    <mxGeometry x="870" y="490" width="30" height="40" as="geometry"/>
                </mxCell>
                <mxCell id="o24XuK63UDQuEkNAiOs7-13" value="" style="html=1;verticalLabelPosition=bottom;align=center;labelBackgroundColor=#ffffff;verticalAlign=top;strokeWidth=2;strokeColor=#000000;shadow=0;dashed=0;shape=mxgraph.ios7.icons.data;fillStyle=auto;fontFamily=Helvetica;fontSize=14;fontColor=default;fillColor=none;sketch=0;fontStyle=1" parent="1" vertex="1">
                    <mxGeometry x="867.5" y="619.91" width="37" height="44.12" as="geometry"/>
                </mxCell>
                <mxCell id="o24XuK63UDQuEkNAiOs7-38" style="edgeStyle=orthogonalEdgeStyle;rounded=0;sketch=0;orthogonalLoop=1;jettySize=auto;html=1;exitX=0.5;exitY=1;exitDx=0;exitDy=0;entryX=0.5;entryY=0;entryDx=0;entryDy=0;fontFamily=Helvetica;fontSize=14;fontColor=default;endArrow=block;endFill=1;strokeColor=#000000;strokeWidth=2;fontStyle=1" parent="1" source="o24XuK63UDQuEkNAiOs7-16" target="o24XuK63UDQuEkNAiOs7-4" edge="1">
                    <mxGeometry relative="1" as="geometry"/>
                </mxCell>
                <mxCell id="o24XuK63UDQuEkNAiOs7-16" value="Enterprise Data Warehouse" style="rounded=1;whiteSpace=wrap;html=1;glass=0;sketch=0;curveFitting=0.95;fontFamily=Helvetica;strokeWidth=2;fillColor=#ffe6cc;verticalAlign=bottom;fontSize=14;strokeColor=#000000;fontStyle=1" parent="1" vertex="1">
                    <mxGeometry x="826.25" y="800" width="110" height="94.19" as="geometry"/>
                </mxCell>
                <mxCell id="o24XuK63UDQuEkNAiOs7-17" value="" style="html=1;verticalLabelPosition=bottom;align=center;labelBackgroundColor=#ffffff;verticalAlign=top;strokeWidth=2;strokeColor=#000000;shadow=0;dashed=0;shape=mxgraph.ios7.icons.data;fillStyle=auto;fontFamily=Helvetica;fontSize=14;fontColor=default;fillColor=none;sketch=0;fontStyle=1" parent="1" vertex="1">
                    <mxGeometry x="862.75" y="810.88" width="37" height="44.12" as="geometry"/>
                </mxCell>
                <mxCell id="o24XuK63UDQuEkNAiOs7-24" style="edgeStyle=orthogonalEdgeStyle;rounded=0;sketch=0;orthogonalLoop=1;jettySize=auto;html=1;exitX=1;exitY=0.75;exitDx=0;exitDy=0;entryX=0.5;entryY=1;entryDx=0;entryDy=0;fontFamily=Helvetica;fontSize=14;fontColor=default;endArrow=none;endFill=0;strokeColor=#000000;strokeWidth=2;fontStyle=1" parent="1" edge="1">
                    <mxGeometry relative="1" as="geometry">
                        <mxPoint x="868.5" y="955.5" as="sourcePoint"/>
                        <mxPoint x="898" y="958" as="targetPoint"/>
                    </mxGeometry>
                </mxCell>
                <mxCell id="o24XuK63UDQuEkNAiOs7-26" style="edgeStyle=orthogonalEdgeStyle;rounded=0;sketch=0;orthogonalLoop=1;jettySize=auto;html=1;exitX=0.5;exitY=1;exitDx=0;exitDy=0;entryX=0.5;entryY=0;entryDx=0;entryDy=0;fontFamily=Helvetica;fontSize=14;fontColor=default;endArrow=none;endFill=0;strokeColor=#000000;strokeWidth=2;fontStyle=1" parent="1" source="o24XuK63UDQuEkNAiOs7-21" target="o24XuK63UDQuEkNAiOs7-23" edge="1">
                    <mxGeometry relative="1" as="geometry"/>
                </mxCell>
                <mxCell id="o24XuK63UDQuEkNAiOs7-21" value="" style="rounded=0;whiteSpace=wrap;html=1;labelBorderColor=none;fillStyle=auto;strokeColor=#000000;strokeWidth=2;fontFamily=Helvetica;fontSize=14;fontColor=default;fillColor=#000000;sketch=0;fontStyle=1" parent="1" vertex="1">
                    <mxGeometry x="855" y="951" width="13.5" height="10" as="geometry"/>
                </mxCell>
                <mxCell id="o24XuK63UDQuEkNAiOs7-22" value="" style="rounded=0;whiteSpace=wrap;html=1;labelBorderColor=none;fillStyle=auto;strokeColor=#000000;strokeWidth=2;fontFamily=Helvetica;fontSize=14;fontColor=default;fillColor=#000000;sketch=0;fontStyle=1" parent="1" vertex="1">
                    <mxGeometry x="891.25" y="951" width="13.5" height="10" as="geometry"/>
                </mxCell>
                <mxCell id="o24XuK63UDQuEkNAiOs7-23" value="" style="rounded=0;whiteSpace=wrap;html=1;labelBorderColor=none;fillStyle=auto;strokeColor=#000000;strokeWidth=2;fontFamily=Helvetica;fontSize=14;fontColor=default;fillColor=#000000;sketch=0;fontStyle=1" parent="1" vertex="1">
                    <mxGeometry x="855" y="985" width="13.5" height="10" as="geometry"/>
                </mxCell>
                <mxCell id="o24XuK63UDQuEkNAiOs7-30" value="" style="rounded=0;whiteSpace=wrap;html=1;labelBorderColor=none;fillStyle=auto;strokeColor=#000000;strokeWidth=2;fontFamily=Helvetica;fontSize=14;fontColor=default;fillColor=#000000;sketch=0;fontStyle=1" parent="1" vertex="1">
                    <mxGeometry x="891" y="984" width="13.5" height="10" as="geometry"/>
                </mxCell>
                <mxCell id="o24XuK63UDQuEkNAiOs7-31" style="edgeStyle=orthogonalEdgeStyle;rounded=0;sketch=0;orthogonalLoop=1;jettySize=auto;html=1;exitX=0.5;exitY=1;exitDx=0;exitDy=0;entryX=0.5;entryY=0;entryDx=0;entryDy=0;fontFamily=Helvetica;fontSize=14;fontColor=default;endArrow=none;endFill=0;strokeColor=#000000;strokeWidth=2;fontStyle=1" parent="1" edge="1">
                    <mxGeometry relative="1" as="geometry">
                        <mxPoint x="897.75" y="960" as="sourcePoint"/>
                        <mxPoint x="897.75" y="984" as="targetPoint"/>
                    </mxGeometry>
                </mxCell>
                <mxCell id="o24XuK63UDQuEkNAiOs7-32" style="edgeStyle=orthogonalEdgeStyle;rounded=0;sketch=0;orthogonalLoop=1;jettySize=auto;html=1;exitX=1;exitY=0.75;exitDx=0;exitDy=0;entryX=0.5;entryY=1;entryDx=0;entryDy=0;fontFamily=Helvetica;fontSize=14;fontColor=default;endArrow=none;endFill=0;strokeColor=#000000;strokeWidth=2;fontStyle=1" parent="1" edge="1">
                    <mxGeometry relative="1" as="geometry">
                        <mxPoint x="869.5" y="988.5" as="sourcePoint"/>
                        <mxPoint x="899" y="991" as="targetPoint"/>
                    </mxGeometry>
                </mxCell>
                <mxCell id="o24XuK63UDQuEkNAiOs7-37" value="" style="shadow=0;dashed=0;html=1;strokeColor=#000000;fillColor=#000000;labelPosition=center;verticalLabelPosition=bottom;verticalAlign=top;align=center;outlineConnect=0;shape=mxgraph.veeam.2d.report;labelBorderColor=none;fillStyle=auto;strokeWidth=2;fontFamily=Helvetica;fontSize=14;fontColor=default;sketch=0;fontStyle=1" parent="1" vertex="1">
                    <mxGeometry x="861.75" y="1087.25" width="36.8" height="50.8" as="geometry"/>
                </mxCell>
                <mxCell id="5" value="Feature n..." style="shape=parallelogram;perimeter=parallelogramPerimeter;whiteSpace=wrap;html=1;fixedSize=1;rounded=0;glass=0;sketch=0;curveFitting=0.95;strokeWidth=2;fontFamily=Helvetica;fillColor=#ffe6cc;fontSize=14;strokeColor=#000000;fontStyle=1" parent="1" vertex="1">
                    <mxGeometry x="490" y="480" width="119" height="40" as="geometry"/>
                </mxCell>
            </root>
        </mxGraphModel>
    </diagram>
</mxfile>